<?xml version="1.0" encoding="utf-8"?>
<!-- Generator: Adobe Illustrator 24.3.0, SVG Export Plug-In . SVG Version: 6.00 Build 0)  -->
<svg version="1.1" id="Layer_1" xmlns="http://www.w3.org/2000/svg" xmlns:xlink="http://www.w3.org/1999/xlink" x="0px" y="0px"
	 viewBox="0 0 16 16" style="enable-background:new 0 0 16 16;" xml:space="preserve">
<style type="text/css">
	.st0{fill:#0D6EFD;}
</style>
<path class="st0" d="M8.4,12.6c0,0.1,0,0.1,0,0.2c0,0.3,0.2,0.5,0.5,0.5c0.3,0,0.5-0.2,0.6-0.5l0.6-2.7h1.2c0.4,0,0.6-0.2,0.6-0.5
	c0-0.3-0.2-0.5-0.6-0.5h-1l0.5-2.5H12c0.4,0,0.6-0.2,0.6-0.5c0-0.3-0.2-0.5-0.6-0.5h-1l0.5-2.3c0-0.1,0-0.1,0-0.2
	c0-0.3-0.2-0.5-0.5-0.5c0,0,0,0,0,0c-0.3,0-0.5,0.2-0.5,0.4L9.9,5.5H7.6l0.5-2.3c0,0,0-0.1,0-0.2c0-0.3-0.2-0.5-0.5-0.5c0,0,0,0,0,0
	c-0.3,0-0.5,0.2-0.5,0.4L6.5,5.5H5.4C5,5.5,4.8,5.7,4.8,6c0,0.3,0.2,0.5,0.6,0.5h0.9L5.8,9.1H4.6C4.2,9.1,4,9.3,4,9.6
	c0,0.3,0.2,0.5,0.6,0.5h1l-0.5,2.5c0,0,0,0.1,0,0.2c0,0.3,0.2,0.5,0.5,0.5c0.3,0,0.5-0.2,0.6-0.5l0.6-2.7h2.2L8.4,12.6L8.4,12.6z
	 M7.4,6.5h2.3L9.1,9.1H6.9L7.4,6.5L7.4,6.5z"/>
</svg>
